<svg width="171" height="155" viewBox="0 0 171 155" fill="none" xmlns="http://www.w3.org/2000/svg">
<ellipse cx="130" cy="69" rx="36" ry="41" fill="#C0C3C6"/>
<path fill-rule="evenodd" clip-rule="evenodd" d="M34.6944 136.711C58.4426 136.711 77.6944 116.34 77.6944 91.2114C77.6944 81.4517 74.7904 72.4096 69.8468 65C90.4207 69.8469 105.694 87.8024 105.694 109.211C105.694 134.34 84.6517 154.711 58.6944 154.711C41.9997 154.711 27.338 146.285 19 133.586C23.8621 135.603 29.156 136.711 34.6944 136.711Z" fill="black"/>
<path fill-rule="evenodd" clip-rule="evenodd" d="M76.6975 80.0985C68.8093 57.6986 81.629 32.7734 105.331 24.4266C116.603 20.4572 128.306 20.9518 138.329 24.9715C126.165 12.6392 107.899 7.61943 90.9166 13.5998C67.2144 21.9467 54.9895 48.561 63.6115 73.0446C69.3392 89.3091 82.8256 100.542 98.1834 103.804C88.3793 99.0935 80.4902 90.8683 76.6975 80.0985Z" fill="black"/>
<path fill-rule="evenodd" clip-rule="evenodd" d="M29.496 131.443C53.2443 131.443 72.496 111.072 72.496 85.9435C72.496 73.9932 68.1422 63.119 61.0214 55C76.6939 62.377 87.496 77.939 87.496 95.9434C87.496 121.072 66.4534 141.443 40.496 141.443C23.2525 141.443 8.17784 132.454 0 119.051C7.69926 126.734 18.0779 131.443 29.496 131.443Z" fill="black"/>
<path fill-rule="evenodd" clip-rule="evenodd" d="M97.5587 94.7866C89.6715 72.3863 102.492 47.4618 126.195 39.1159C135.401 35.8746 144.894 35.6107 153.525 37.8128C142.12 20.0164 120.111 11.5731 99.9173 18.6834C76.2147 27.0293 63.9887 53.6431 72.6096 78.127C78.1542 93.8741 90.9719 104.905 105.72 108.552C102.201 104.636 99.3981 100.011 97.5587 94.7866Z" fill="black"/>
<path d="M154.95 51.5C154.95 51.8262 154.778 52.1427 154.456 52.4361C154.133 52.7296 153.663 52.9962 153.078 53.2211C151.909 53.6708 150.29 53.95 148.5 53.95C146.71 53.95 145.091 53.6708 143.922 53.2211C143.337 52.9962 142.867 52.7296 142.544 52.4361C142.222 52.1427 142.05 51.8262 142.05 51.5C142.05 51.1738 142.222 50.8573 142.544 50.5639C142.867 50.2704 143.337 50.0038 143.922 49.7789C145.091 49.3292 146.71 49.05 148.5 49.05C150.29 49.05 151.909 49.3292 153.078 49.7789C153.663 50.0038 154.133 50.2704 154.456 50.5639C154.778 50.8573 154.95 51.1738 154.95 51.5Z" fill="white" stroke="black" stroke-width="0.1"/>
<circle cx="149" cy="51" r="1" fill="black"/>
<circle cx="149.5" cy="51.5" r="0.5" fill="white"/>
<path fill-rule="evenodd" clip-rule="evenodd" d="M164.936 79.0466C161.023 78.6251 157.521 76.2527 155.812 72.3818C155.179 70.9473 154.848 69.4337 154.792 67.9149C152.6 71.7073 152.19 76.5882 154.098 80.9122C155.842 84.8634 159.134 87.4703 162.816 88.2923L164.936 79.0466Z" fill="white"/>
</svg>
